<!-- the poop -->

<svg xmlns="http://www.w3.org/2000/svg" xmlns:xlink="http://www.w3.org/1999/xlink" version="1.1" id="Layer_1" x="0px" y="0px" width="100.0px" height="100px" viewBox="14.173 -28.346 283.46 382.671" enable-background="new 0 0 283.46 283.46" xml:space="preserve">
<path fill="#fff" d="M142.871,218.393c-0.895-6.62-4.263-10.575-7.001-10.575c-2.739,0-6.106,3.955-7,10.573l-8.592-1.159  c1.439-10.646,7.851-18.084,15.592-18.084c7.74,0,14.152,7.438,15.593,18.082L142.871,218.393z"/>
<path fill="#ffffff" d="M180.405,159.063c-10.925,0-19.782,8.856-19.782,19.781c0,10.926,8.857,19.782,19.782,19.782  c10.927,0,19.784-8.856,19.784-19.782C200.189,167.919,191.332,159.063,180.405,159.063z M184.582,190.188  c-2.303-3.299-6.307-5.058-10.33-4.45c3.512-2.055,5.525-5.939,5.246-9.951c2.301,3.299,6.309,5.059,10.33,4.45  C186.316,182.292,184.3,186.177,184.582,190.188z"/>
<path fill="#fff" d="M95.849,159.063c-10.925,0-19.782,8.856-19.782,19.781c0,10.926,8.857,19.782,19.782,19.782  c10.925,0,19.782-8.856,19.782-19.782C115.631,167.919,106.774,159.063,95.849,159.063z M103.254,190.188  c-2.301-3.299-6.306-5.058-10.328-4.45c3.51-2.055,5.526-5.939,5.245-9.951c2.301,3.299,6.309,5.059,10.331,4.45  C104.991,182.292,102.974,186.177,103.254,190.188z"/>
<path fill="#fff" d="M219.285,258.203H65.035c-26.813,0-48.628-21.813-48.628-48.627v-4.287  c0-20.209,12.683-38.199,31.065-45.347c-2.249-4.969-3.416-10.364-3.416-15.929v-3.299c0-18.893,13.313-34.562,31.267-38.028  c-0.001-0.067-0.001-0.134-0.001-0.201c0-14.194,9.136-27.159,25.079-35.608l0.451-0.237l0.689-0.35  c24.848-12.537,36.221-19.907,38.41-22.409c1.831-2.092,3.745-4.717,5.595-7.255c5.002-6.857,8.951-12.273,14.416-12.273  c1.684,0,5.826,0.614,7.961,6.309c2.027,5.406,1.367,16.014-1.961,31.576c21.797,7.24,35.664,22.394,35.938,39.728  c21.188,0.21,38.363,17.512,38.363,38.75v3.299c0,5.562-1.167,10.96-3.416,15.929c18.383,7.147,31.064,25.138,31.064,45.347v4.287  C267.912,236.389,246.098,258.203,219.285,258.203z M106.201,76.886l-0.159,0.084c-12.177,6.382-19.161,15.682-19.161,25.515  c0,1.332,0.146,2.726,0.432,4.142l1.351,6.686l-6.816,0.235c-14.709,0.509-26.232,12.441-26.232,27.167v3.299  c0,5.776,1.792,11.296,5.185,15.964l5.238,7.209l-8.718,1.843c-17.009,3.599-29.354,18.847-29.354,36.259v4.287  c0,20.439,16.629,37.068,37.069,37.068h154.25c20.438,0,37.067-16.629,37.067-37.068v-4.287c0-17.412-12.345-32.66-29.354-36.259  l-8.717-1.843l5.238-7.209c3.391-4.668,5.186-10.188,5.186-15.964v-3.299c0-14.994-12.199-27.192-27.194-27.192h-12.981l1.389-6.917  c0.285-1.412,0.429-2.798,0.429-4.12c0-13.292-13.121-25.604-32.65-30.637l-5.479-1.413l1.295-5.508  c2.687-11.415,3.872-19.889,4.026-25.069c-0.932,1.22-1.867,2.505-2.65,3.579c-2,2.742-4.068,5.578-6.237,8.056  c-4.131,4.723-18.229,13.174-41.902,25.117L106.201,76.886z"/>
</svg>